# xmcd
#
# Track frame offsets:
#	150
#	13222
#	29032
#	44557
#	60552
#	74172
#	95070
#	111410
#	125530
#	141062
#	153402
#	168017
#	189712
#	206292
#
# Disc length: 2775 seconds
#
# Revision: 1
# Processed by: cddbd v1.5.1PL0 Copyright (c) Steve Scherf et al.
# Submitted via: EasyCDDAExtractor 6.5.9.5
#
DISCID=d30ad50e
DTITLE=Ray Scott - My Kind Of Music
DYEAR=2005
DGENRE=Country
TTITLE0=Gone Either Way
TTITLE1=Makin' My Way
TTITLE2=Different Kind of Cowboy
TTITLE3=Walls
TTITLE4=My Kind Of Music
TTITLE5=Plowboy
TTITLE6=I didn't Come Here To Talk
TTITLE7=Dirty Shirt
TTITLE8=Time
TTITLE9=Rats Don't Race
TTITLE10=Fly With An Angel
TTITLE11=Gypsy
TTITLE12=Bear With Me Lord
TTITLE13=Extra Track
EXTD=
EXTT0=
EXTT1=
EXTT2=
EXTT3=
EXTT4=
EXTT5=
EXTT6=
EXTT7=
EXTT8=
EXTT9=
EXTT10=
EXTT11=
EXTT12=
EXTT13=
PLAYORDER=
